PathFileType	4	(X/Y/Z)	C:\Users\Owen\Repositories\CapacitiveSensingKinematics\CSOptimalControl\OutputData\FilteredIMUAccels.trc
DataRate	CameraRate	NumFrames	NumMarkers	Units	OrigDataRate	OrigDataStartFrame	OrigNumFrames
100	100	11	8	m	100	6174	7057
Frame#	Time	/bodyset/torso/torso_imu_offset			/bodyset/pelvis/pelvis_imu_offset			/bodyset/tibia_r/tibia_r_imu_offset			/bodyset/femur_r/femur_r_imu_offset			/bodyset/tibia_l/tibia_l_imu_offset			/bodyset/femur_l/femur_l_imu_offset			/bodyset/toes_r/toes_r_imu_offset			/bodyset/toes_l/toes_l_imu_offset			
		X1	Y1	Z1	X2	Y2	Z2	X3	Y3	Z3	X4	Y4	Z4	X5	Y5	Z5	X6	Y6	Z6	X7	Y7	Z7	X8	Y8	Z8	

6175	61.74	7.829655579385208	0.6248829821051207	6.40318605618462	8.197480152695322	-2.372064823526406	4.85901889244524	6.945154990735494	8.358296491392965	2.32704967272477	10.07053876365057	-1.049156522324126	2.149973628051124	10.03619193507792	3.498529541093073	0.6069131931409955	9.320689653897345	0.3792600909117173	-2.34414325947659	11.54381597452038	-0.3250677594391784	7.427225869169946	3.5943537923324	0.7120559374150212	11.91593644465399	
6176	61.75	8.251981069327311	0.5715737468297587	6.546926997193499	8.460441116629546	-2.314269161710784	4.668257346766733	6.019411902666331	8.757513364433953	2.490067050613546	10.26397389593304	-1.340947416700192	2.078987885483267	9.896175941510631	2.291217288237765	-0.2494885609625505	9.337225216183873	-0.3813230968306454	-2.159484499613259	10.66561282070122	-0.1615505787411606	8.195274123135386	3.586141010307121	0.8795068207204383	11.89633769857995	
6177	61.76	8.600343169073714	0.5163375717582741	6.708561054549608	8.698199317906369	-2.061126473533963	4.466938285491595	5.006257035660055	9.042637071160184	2.745158980250024	10.41360974801978	-1.425528276735626	2.038111943068924	9.800027587887099	0.6522893462526392	-1.124261871475091	9.284350967747901	-1.149388013648383	-2.178153915625274	10.15952897911206	-0.02903201572510972	9.393710023977583	3.59506516041693	1.040183174458121	11.87506162931455	
6178	61.77	8.870569118028202	0.4674241202329169	6.875966537476363	8.929526989034608	-1.678635042217053	4.27492508907437	3.975403418154589	9.241207221483538	2.996190414215758	10.57224347639312	-1.379034524892506	2.057224491426202	9.778234341169091	-0.9945342230148343	-1.805487320465943	9.193202307838332	-1.742186349442214	-2.387189464541839	10.05560523999808	-0.2423840437764535	10.81268846513353	3.632447818893317	1.148973131305948	11.85934266200314	
6179	61.78	9.080002604872201	0.4294938843344328	7.044819013595313	9.174638109927834	-1.235124185256068	4.109231270000129	3.036187012936097	9.371927149698809	3.145444047073393	10.7886873391564	-1.291862490145731	2.141430181229095	9.831704873922563	-2.235641456034187	-2.164817442697591	9.10322711913204	-2.086292712982379	-2.704871836149008	9.973875126626774	-1.183165701486306	11.93521539370199	3.695962373936363	1.186806042079481	11.8526789106693	
6180	61.79	9.247076996053462	0.4032954900681254	7.214389222122198	9.435229517888368	-0.7968496891588072	3.979224181267636	2.322719086890897	9.412123281118257	3.152457607229615	11.0696899782333	-1.229233917487119	2.264515807704136	9.940990843633035	-2.809773251052012	-2.182997526565298	9.048678493383701	-2.200850255647058	-3.034806998526747	9.38565114537573	-2.898460778086571	12.20464878832892	3.76140264222438	1.161063890134218	11.85675798417355	
6181	61.8	9.374838757629602	0.3868025127383702	7.383517759834613	9.687294442634268	-0.4228610590870904	3.886213689013002	1.966143818871146	9.289760150943282	3.072764463165679	11.36200093440953	-1.222604933158595	2.379133372215049	10.07158452369837	-2.683014932145503	-1.940938065977394	9.044602567465267	-2.150495785763117	-3.30370209852755	8.130424213006712	-4.889426270038703	11.46315886969199	3.799199029202039	1.098098148227215	11.8703287941309	
6182	61.81	9.448639012709489	0.3746923341393736	7.548093452077631	9.890935995529468	-0.1579934013980703	3.825717729613882	2.045171097633991	8.931272001445096	3.03416859384101	11.56906286817256	-1.280131813433788	2.440789960790643	10.18123588708741	-2.022874431421576	-1.567894847641564	9.085132787982701	-1.993192412619321	-3.467397354594741	6.51520889069466	-6.431875351427531	10.0589413289927	3.797489741904081	1.030344549539802	11.88388686208247	
6183	61.82	9.445473065399012	0.3583442794098404	7.697066825467989	10.01032148874448	-0.02650264788939411	3.788717397197181	2.527204641964181	8.32603143955143	3.14999796854014	11.59558258286797	-1.395350995951345	2.429027770737355	10.23366160553671	-1.101358318653472	-1.183226513666814	9.151733818284834	-1.752811473605594	-3.50608204757531	4.972706619396701	-7.053968502059983	8.554913871829729	3.762646615313258	0.9841388793453726	11.88505040734042	
6184	61.83	9.347468928992736	0.3285614962872004	7.810701457745884	10.02915533054011	-0.03062599490632613	3.761586035060724	3.254804040081588	7.540600346587779	3.442673222877167	11.39478714017536	-1.550917289726001	2.352003223831551	10.21451488894754	-0.1934791768064849	-0.8676385686370133	9.220417599027027	-1.431335173664996	-3.424506775433071	3.794755669008413	-6.70646357995007	7.403124767518348	3.706142034009164	0.9732075685573889	11.87080407397558	
6185	61.84	9.153975420839878	0.2800402817996272	7.868001021716722	9.953119611184277	-0.1547997041691904	3.728104226114228	4.014710849294259	6.674409857939851	3.840233152663336	10.99084846828804	-1.723766980617065	2.236249468248894	10.13711923296393	0.4907552432584276	-0.6590898370877488	9.268809466261803	-1.039252330334946	-3.24934826906949	3.102647594028125	-5.651348053415635	6.805946430597799	3.643515497796783	0.9953000077102083	11.84676729885091	
